<?xml version="1.0" encoding="UTF-8"?>
<svg id="audienceMembers" xmlns="http://www.w3.org/2000/svg" viewBox="0 0 653.663 499.104">
  <defs>
    <style>
      .cls-1 {
        fill: none;
        stroke: #bbb;
        stroke-miterlimit: 10;
        stroke-width: 7px;
      }
    </style>
  </defs>
  <g id="member1">
    <circle id="Body" class="cls-1" cx="26.312" cy="18.083" r="13.583"/>
    <path id="Head" class="cls-1" d="m12.662,42.046h26.871l-.422.01c13.031-.442,9.607,13.528,9.607,13.528,0,0-5.677,22.767-5.687,22.859-1.712,7.564-11.417,6.536-11.417,6.536h-10.933s-9.377,1.028-11.089-6.536c-.01-.092-5.687-22.859-5.687-22.859,0,0-3.423-13.969,9.607-13.528l-.851-.01Z"/>
  </g>
  <g id="member2">
    <circle id="Body-2" data-name="Body" class="cls-1" cx="93.094" cy="18.083" r="13.583"/>
    <path id="Head-2" data-name="Head" class="cls-1" d="m79.444,42.046h26.871l-.422.01c13.031-.442,9.607,13.528,9.607,13.528,0,0-5.677,22.767-5.687,22.859-1.712,7.564-11.417,6.536-11.417,6.536h-10.933s-9.377,1.028-11.089-6.536c-.01-.092-5.687-22.859-5.687-22.859,0,0-3.423-13.969,9.607-13.528l-.851-.01Z"/>
  </g>
  <g id="member3">
    <circle id="Body-3" data-name="Body" class="cls-1" cx="159.876" cy="18.083" r="13.583"/>
    <path id="Head-3" data-name="Head" class="cls-1" d="m146.226,42.046h26.871l-.422.01c13.031-.442,9.607,13.528,9.607,13.528,0,0-5.677,22.767-5.687,22.859-1.712,7.564-11.417,6.536-11.417,6.536h-10.933s-9.377,1.028-11.089-6.536c-.01-.092-5.687-22.859-5.687-22.859,0,0-3.423-13.969,9.607-13.528l-.851-.01Z"/>
  </g>
  <g id="member4">
    <circle id="Body-4" data-name="Body" class="cls-1" cx="226.659" cy="18.083" r="13.583"/>
    <path id="Head-4" data-name="Head" class="cls-1" d="m213.008,42.046h26.871l-.422.01c13.031-.442,9.607,13.528,9.607,13.528,0,0-5.677,22.767-5.687,22.859-1.712,7.564-11.417,6.536-11.417,6.536h-10.933s-9.377,1.028-11.089-6.536c-.01-.092-5.687-22.859-5.687-22.859,0,0-3.423-13.969,9.607-13.528l-.851-.01Z"/>
  </g>
  <g id="member5">
    <circle id="Body-5" data-name="Body" class="cls-1" cx="293.441" cy="18.083" r="13.583"/>
    <path id="Head-5" data-name="Head" class="cls-1" d="m279.79,42.046h26.871l-.422.01c13.031-.442,9.607,13.528,9.607,13.528,0,0-5.677,22.767-5.687,22.859-1.712,7.564-11.417,6.536-11.417,6.536h-10.933s-9.377,1.028-11.089-6.536c-.01-.092-5.687-22.859-5.687-22.859,0,0-3.423-13.969,9.607-13.528l-.851-.01Z"/>
  </g>
  <g id="member6">
    <circle id="Body-6" data-name="Body" class="cls-1" cx="360.223" cy="18.083" r="13.583"/>
    <path id="Head-6" data-name="Head" class="cls-1" d="m346.573,42.046h26.871l-.422.01c13.031-.442,9.607,13.528,9.607,13.528,0,0-5.677,22.767-5.687,22.859-1.712,7.564-11.417,6.536-11.417,6.536h-10.933s-9.377,1.028-11.089-6.536c-.01-.092-5.687-22.859-5.687-22.859,0,0-3.423-13.969,9.607-13.528l-.851-.01Z"/>
  </g>
  <g id="member7">
    <circle id="Body-7" data-name="Body" class="cls-1" cx="427.005" cy="17.083" r="13.583"/>
    <path id="Head-7" data-name="Head" class="cls-1" d="m413.355,41.046h26.871l-.422.01c13.031-.442,9.607,13.528,9.607,13.528,0,0-5.677,22.767-5.687,22.859-1.712,7.564-11.417,6.536-11.417,6.536h-10.933s-9.377,1.028-11.089-6.536c-.01-.092-5.687-22.859-5.687-22.859,0,0-3.423-13.969,9.607-13.528l-.851-.01Z"/>
  </g>
  <g id="member8">
    <circle id="Body-8" data-name="Body" class="cls-1" cx="493.787" cy="18.083" r="13.583"/>
    <path id="Head-8" data-name="Head" class="cls-1" d="m480.137,42.046h26.871l-.422.01c13.031-.442,9.607,13.528,9.607,13.528,0,0-5.677,22.767-5.687,22.859-1.712,7.564-11.417,6.536-11.417,6.536h-10.933s-9.377,1.028-11.089-6.536c-.01-.092-5.687-22.859-5.687-22.859,0,0-3.423-13.969,9.607-13.528l-.851-.01Z"/>
  </g>
  <g id="member9">
    <circle id="Body-9" data-name="Body" class="cls-1" cx="560.569" cy="18.083" r="13.583"/>
    <path id="Head-9" data-name="Head" class="cls-1" d="m546.919,42.046h26.871l-.422.01c13.031-.442,9.607,13.528,9.607,13.528,0,0-5.677,22.767-5.687,22.859-1.712,7.564-11.417,6.536-11.417,6.536h-10.933s-9.377,1.028-11.089-6.536c-.01-.092-5.687-22.859-5.687-22.859,0,0-3.423-13.969,9.607-13.528l-.851-.01Z"/>
  </g>
  <g id="member10">
    <circle id="Body-10" data-name="Body" class="cls-1" cx="627.351" cy="18.083" r="13.583"/>
    <path id="Head-10" data-name="Head" class="cls-1" d="m613.701,42.046h26.871l-.422.01c13.031-.442,9.607,13.528,9.607,13.528,0,0-5.677,22.767-5.687,22.859-1.712,7.564-11.417,6.536-11.417,6.536h-10.933s-9.377,1.028-11.089-6.536c-.01-.092-5.687-22.859-5.687-22.859,0,0-3.423-13.969,9.607-13.528l-.851-.01Z"/>
  </g>
  <g id="member11">
    <circle id="Body-11" data-name="Body" class="cls-1" cx="26.312" cy="120.727" r="13.583"/>
    <path id="Head-11" data-name="Head" class="cls-1" d="m12.662,144.69h26.871l-.422.01c13.031-.442,9.607,13.528,9.607,13.528,0,0-5.677,22.767-5.687,22.859-1.712,7.564-11.417,6.536-11.417,6.536h-10.933s-9.377,1.028-11.089-6.536c-.01-.092-5.687-22.859-5.687-22.859,0,0-3.423-13.969,9.607-13.528l-.851-.01Z"/>
  </g>
  <g id="member12">
    <circle id="Body-12" data-name="Body" class="cls-1" cx="93.094" cy="120.727" r="13.583"/>
    <path id="Head-12" data-name="Head" class="cls-1" d="m79.444,144.69h26.871l-.422.01c13.031-.442,9.607,13.528,9.607,13.528,0,0-5.677,22.767-5.687,22.859-1.712,7.564-11.417,6.536-11.417,6.536h-10.933s-9.377,1.028-11.089-6.536c-.01-.092-5.687-22.859-5.687-22.859,0,0-3.423-13.969,9.607-13.528l-.851-.01Z"/>
  </g>
  <g id="member13">
    <circle id="Body-13" data-name="Body" class="cls-1" cx="159.876" cy="120.727" r="13.583"/>
    <path id="Head-13" data-name="Head" class="cls-1" d="m146.226,144.69h26.871l-.422.01c13.031-.442,9.607,13.528,9.607,13.528,0,0-5.677,22.767-5.687,22.859-1.712,7.564-11.417,6.536-11.417,6.536h-10.933s-9.377,1.028-11.089-6.536c-.01-.092-5.687-22.859-5.687-22.859,0,0-3.423-13.969,9.607-13.528l-.851-.01Z"/>
  </g>
  <g id="member14">
    <circle id="Body-14" data-name="Body" class="cls-1" cx="226.659" cy="120.727" r="13.583"/>
    <path id="Head-14" data-name="Head" class="cls-1" d="m213.008,144.69h26.871l-.422.01c13.031-.442,9.607,13.528,9.607,13.528,0,0-5.677,22.767-5.687,22.859-1.712,7.564-11.417,6.536-11.417,6.536h-10.933s-9.377,1.028-11.089-6.536c-.01-.092-5.687-22.859-5.687-22.859,0,0-3.423-13.969,9.607-13.528l-.851-.01Z"/>
  </g>
  <g id="member15">
    <circle id="Body-15" data-name="Body" class="cls-1" cx="293.441" cy="120.727" r="13.583"/>
    <path id="Head-15" data-name="Head" class="cls-1" d="m279.79,144.69h26.871l-.422.01c13.031-.442,9.607,13.528,9.607,13.528,0,0-5.677,22.767-5.687,22.859-1.712,7.564-11.417,6.536-11.417,6.536h-10.933s-9.377,1.028-11.089-6.536c-.01-.092-5.687-22.859-5.687-22.859,0,0-3.423-13.969,9.607-13.528l-.851-.01Z"/>
  </g>
  <g id="member16">
    <circle id="Body-16" data-name="Body" class="cls-1" cx="360.223" cy="120.727" r="13.583"/>
    <path id="Head-16" data-name="Head" class="cls-1" d="m346.573,144.69h26.871l-.422.01c13.031-.442,9.607,13.528,9.607,13.528,0,0-5.677,22.767-5.687,22.859-1.712,7.564-11.417,6.536-11.417,6.536h-10.933s-9.377,1.028-11.089-6.536c-.01-.092-5.687-22.859-5.687-22.859,0,0-3.423-13.969,9.607-13.528l-.851-.01Z"/>
  </g>
  <g id="member17">
    <circle id="Body-17" data-name="Body" class="cls-1" cx="427.005" cy="120.727" r="13.583"/>
    <path id="Head-17" data-name="Head" class="cls-1" d="m413.355,144.69h26.871l-.422.01c13.031-.442,9.607,13.528,9.607,13.528,0,0-5.677,22.767-5.687,22.859-1.712,7.564-11.417,6.536-11.417,6.536h-10.933s-9.377,1.028-11.089-6.536c-.01-.092-5.687-22.859-5.687-22.859,0,0-3.423-13.969,9.607-13.528l-.851-.01Z"/>
  </g>
  <g id="member18">
    <circle id="Body-18" data-name="Body" class="cls-1" cx="493.787" cy="120.727" r="13.583"/>
    <path id="Head-18" data-name="Head" class="cls-1" d="m480.137,144.69h26.871l-.422.01c13.031-.442,9.607,13.528,9.607,13.528,0,0-5.677,22.767-5.687,22.859-1.712,7.564-11.417,6.536-11.417,6.536h-10.933s-9.377,1.028-11.089-6.536c-.01-.092-5.687-22.859-5.687-22.859,0,0-3.423-13.969,9.607-13.528l-.851-.01Z"/>
  </g>
  <g id="member19">
    <circle id="Body-19" data-name="Body" class="cls-1" cx="560.569" cy="120.727" r="13.583"/>
    <path id="Head-19" data-name="Head" class="cls-1" d="m546.919,144.69h26.871l-.422.01c13.031-.442,9.607,13.528,9.607,13.528,0,0-5.677,22.767-5.687,22.859-1.712,7.564-11.417,6.536-11.417,6.536h-10.933s-9.377,1.028-11.089-6.536c-.01-.092-5.687-22.859-5.687-22.859,0,0-3.423-13.969,9.607-13.528l-.851-.01Z"/>
  </g>
  <g id="member20">
    <circle id="Body-20" data-name="Body" class="cls-1" cx="627.351" cy="120.727" r="13.583"/>
    <path id="Head-20" data-name="Head" class="cls-1" d="m613.701,144.69h26.871l-.422.01c13.031-.442,9.607,13.528,9.607,13.528,0,0-5.677,22.767-5.687,22.859-1.712,7.564-11.417,6.536-11.417,6.536h-10.933s-9.377,1.028-11.089-6.536c-.01-.092-5.687-22.859-5.687-22.859,0,0-3.423-13.969,9.607-13.528l-.851-.01Z"/>
  </g>
  <g id="member21">
    <circle id="Body-21" data-name="Body" class="cls-1" cx="26.312" cy="223.372" r="13.583"/>
    <path id="Head-21" data-name="Head" class="cls-1" d="m12.662,247.335h26.871l-.422.01c13.031-.442,9.607,13.528,9.607,13.528,0,0-5.677,22.767-5.687,22.859-1.712,7.564-11.417,6.536-11.417,6.536h-10.933s-9.377,1.028-11.089-6.536c-.01-.092-5.687-22.859-5.687-22.859,0,0-3.423-13.969,9.607-13.528l-.851-.01Z"/>
  </g>
  <g id="member22">
    <circle id="Body-22" data-name="Body" class="cls-1" cx="93.094" cy="223.372" r="13.583"/>
    <path id="Head-22" data-name="Head" class="cls-1" d="m79.444,247.335h26.871l-.422.01c13.031-.442,9.607,13.528,9.607,13.528,0,0-5.677,22.767-5.687,22.859-1.712,7.564-11.417,6.536-11.417,6.536h-10.933s-9.377,1.028-11.089-6.536c-.01-.092-5.687-22.859-5.687-22.859,0,0-3.423-13.969,9.607-13.528l-.851-.01Z"/>
  </g>
  <g id="member23">
    <circle id="Body-23" data-name="Body" class="cls-1" cx="159.876" cy="223.372" r="13.583"/>
    <path id="Head-23" data-name="Head" class="cls-1" d="m146.226,247.335h26.871l-.422.01c13.031-.442,9.607,13.528,9.607,13.528,0,0-5.677,22.767-5.687,22.859-1.712,7.564-11.417,6.536-11.417,6.536h-10.933s-9.377,1.028-11.089-6.536c-.01-.092-5.687-22.859-5.687-22.859,0,0-3.423-13.969,9.607-13.528l-.851-.01Z"/>
  </g>
  <g id="member24">
    <circle id="Body-24" data-name="Body" class="cls-1" cx="226.659" cy="223.372" r="13.583"/>
    <path id="Head-24" data-name="Head" class="cls-1" d="m213.008,247.335h26.871l-.422.01c13.031-.442,9.607,13.528,9.607,13.528,0,0-5.677,22.767-5.687,22.859-1.712,7.564-11.417,6.536-11.417,6.536h-10.933s-9.377,1.028-11.089-6.536c-.01-.092-5.687-22.859-5.687-22.859,0,0-3.423-13.969,9.607-13.528l-.851-.01Z"/>
  </g>
  <g id="member25">
    <circle id="Body-25" data-name="Body" class="cls-1" cx="293.441" cy="223.372" r="13.583"/>
    <path id="Head-25" data-name="Head" class="cls-1" d="m279.79,247.335h26.871l-.422.01c13.031-.442,9.607,13.528,9.607,13.528,0,0-5.677,22.767-5.687,22.859-1.712,7.564-11.417,6.536-11.417,6.536h-10.933s-9.377,1.028-11.089-6.536c-.01-.092-5.687-22.859-5.687-22.859,0,0-3.423-13.969,9.607-13.528l-.851-.01Z"/>
  </g>
  <g id="member26">
    <circle id="Body-26" data-name="Body" class="cls-1" cx="360.223" cy="223.372" r="13.583"/>
    <path id="Head-26" data-name="Head" class="cls-1" d="m346.573,247.335h26.871l-.422.01c13.031-.442,9.607,13.528,9.607,13.528,0,0-5.677,22.767-5.687,22.859-1.712,7.564-11.417,6.536-11.417,6.536h-10.933s-9.377,1.028-11.089-6.536c-.01-.092-5.687-22.859-5.687-22.859,0,0-3.423-13.969,9.607-13.528l-.851-.01Z"/>
  </g>
  <g id="member27">
    <circle id="Body-27" data-name="Body" class="cls-1" cx="427.005" cy="223.372" r="13.583"/>
    <path id="Head-27" data-name="Head" class="cls-1" d="m413.355,247.335h26.871l-.422.01c13.031-.442,9.607,13.528,9.607,13.528,0,0-5.677,22.767-5.687,22.859-1.712,7.564-11.417,6.536-11.417,6.536h-10.933s-9.377,1.028-11.089-6.536c-.01-.092-5.687-22.859-5.687-22.859,0,0-3.423-13.969,9.607-13.528l-.851-.01Z"/>
  </g>
  <g id="member28">
    <circle id="Body-28" data-name="Body" class="cls-1" cx="493.787" cy="223.372" r="13.583"/>
    <path id="Head-28" data-name="Head" class="cls-1" d="m480.137,247.335h26.871l-.422.01c13.031-.442,9.607,13.528,9.607,13.528,0,0-5.677,22.767-5.687,22.859-1.712,7.564-11.417,6.536-11.417,6.536h-10.933s-9.377,1.028-11.089-6.536c-.01-.092-5.687-22.859-5.687-22.859,0,0-3.423-13.969,9.607-13.528l-.851-.01Z"/>
  </g>
  <g id="member29">
    <circle id="Body-29" data-name="Body" class="cls-1" cx="560.569" cy="223.372" r="13.583"/>
    <path id="Head-29" data-name="Head" class="cls-1" d="m546.919,247.335h26.871l-.422.01c13.031-.442,9.607,13.528,9.607,13.528,0,0-5.677,22.767-5.687,22.859-1.712,7.564-11.417,6.536-11.417,6.536h-10.933s-9.377,1.028-11.089-6.536c-.01-.092-5.687-22.859-5.687-22.859,0,0-3.423-13.969,9.607-13.528l-.851-.01Z"/>
  </g>
  <g id="member30">
    <circle id="Body-30" data-name="Body" class="cls-1" cx="627.351" cy="223.372" r="13.583"/>
    <path id="Head-30" data-name="Head" class="cls-1" d="m613.701,247.335h26.871l-.422.01c13.031-.442,9.607,13.528,9.607,13.528,0,0-5.677,22.767-5.687,22.859-1.712,7.564-11.417,6.536-11.417,6.536h-10.933s-9.377,1.028-11.089-6.536c-.01-.092-5.687-22.859-5.687-22.859,0,0-3.423-13.969,9.607-13.528l-.851-.01Z"/>
  </g>
  <g id="member31">
    <circle id="Body-31" data-name="Body" class="cls-1" cx="26.312" cy="326.016" r="13.583"/>
    <path id="Head-31" data-name="Head" class="cls-1" d="m12.662,349.979h26.871l-.422.01c13.031-.442,9.607,13.528,9.607,13.528,0,0-5.677,22.767-5.687,22.859-1.712,7.564-11.417,6.536-11.417,6.536h-10.933s-9.377,1.028-11.089-6.536c-.01-.092-5.687-22.859-5.687-22.859,0,0-3.423-13.969,9.607-13.528l-.851-.01Z"/>
  </g>
  <g id="member32">
    <circle id="Body-32" data-name="Body" class="cls-1" cx="93.094" cy="326.016" r="13.583"/>
    <path id="Head-32" data-name="Head" class="cls-1" d="m79.444,349.979h26.871l-.422.01c13.031-.442,9.607,13.528,9.607,13.528,0,0-5.677,22.767-5.687,22.859-1.712,7.564-11.417,6.536-11.417,6.536h-10.933s-9.377,1.028-11.089-6.536c-.01-.092-5.687-22.859-5.687-22.859,0,0-3.423-13.969,9.607-13.528l-.851-.01Z"/>
  </g>
  <g id="member33">
    <circle id="Body-33" data-name="Body" class="cls-1" cx="159.876" cy="326.016" r="13.583"/>
    <path id="Head-33" data-name="Head" class="cls-1" d="m146.226,349.979h26.871l-.422.01c13.031-.442,9.607,13.528,9.607,13.528,0,0-5.677,22.767-5.687,22.859-1.712,7.564-11.417,6.536-11.417,6.536h-10.933s-9.377,1.028-11.089-6.536c-.01-.092-5.687-22.859-5.687-22.859,0,0-3.423-13.969,9.607-13.528l-.851-.01Z"/>
  </g>
  <g id="member34">
    <circle id="Body-34" data-name="Body" class="cls-1" cx="226.659" cy="326.016" r="13.583"/>
    <path id="Head-34" data-name="Head" class="cls-1" d="m213.008,349.979h26.871l-.422.01c13.031-.442,9.607,13.528,9.607,13.528,0,0-5.677,22.767-5.687,22.859-1.712,7.564-11.417,6.536-11.417,6.536h-10.933s-9.377,1.028-11.089-6.536c-.01-.092-5.687-22.859-5.687-22.859,0,0-3.423-13.969,9.607-13.528l-.851-.01Z"/>
  </g>
  <g id="member35">
    <circle id="Body-35" data-name="Body" class="cls-1" cx="293.441" cy="326.016" r="13.583"/>
    <path id="Head-35" data-name="Head" class="cls-1" d="m279.79,349.979h26.871l-.422.01c13.031-.442,9.607,13.528,9.607,13.528,0,0-5.677,22.767-5.687,22.859-1.712,7.564-11.417,6.536-11.417,6.536h-10.933s-9.377,1.028-11.089-6.536c-.01-.092-5.687-22.859-5.687-22.859,0,0-3.423-13.969,9.607-13.528l-.851-.01Z"/>
  </g>
  <g id="member36">
    <circle id="Body-36" data-name="Body" class="cls-1" cx="360.223" cy="326.016" r="13.583"/>
    <path id="Head-36" data-name="Head" class="cls-1" d="m346.573,349.979h26.871l-.422.01c13.031-.442,9.607,13.528,9.607,13.528,0,0-5.677,22.767-5.687,22.859-1.712,7.564-11.417,6.536-11.417,6.536h-10.933s-9.377,1.028-11.089-6.536c-.01-.092-5.687-22.859-5.687-22.859,0,0-3.423-13.969,9.607-13.528l-.851-.01Z"/>
  </g>
  <g id="member37">
    <circle id="Body-37" data-name="Body" class="cls-1" cx="427.005" cy="326.016" r="13.583"/>
    <path id="Head-37" data-name="Head" class="cls-1" d="m413.355,349.979h26.871l-.422.01c13.031-.442,9.607,13.528,9.607,13.528,0,0-5.677,22.767-5.687,22.859-1.712,7.564-11.417,6.536-11.417,6.536h-10.933s-9.377,1.028-11.089-6.536c-.01-.092-5.687-22.859-5.687-22.859,0,0-3.423-13.969,9.607-13.528l-.851-.01Z"/>
  </g>
  <g id="member38">
    <circle id="Body-38" data-name="Body" class="cls-1" cx="493.787" cy="326.016" r="13.583"/>
    <path id="Head-38" data-name="Head" class="cls-1" d="m480.137,349.979h26.871l-.422.01c13.031-.442,9.607,13.528,9.607,13.528,0,0-5.677,22.767-5.687,22.859-1.712,7.564-11.417,6.536-11.417,6.536h-10.933s-9.377,1.028-11.089-6.536c-.01-.092-5.687-22.859-5.687-22.859,0,0-3.423-13.969,9.607-13.528l-.851-.01Z"/>
  </g>
  <g id="member39">
    <circle id="Body-39" data-name="Body" class="cls-1" cx="560.569" cy="326.016" r="13.583"/>
    <path id="Head-39" data-name="Head" class="cls-1" d="m546.919,349.979h26.871l-.422.01c13.031-.442,9.607,13.528,9.607,13.528,0,0-5.677,22.767-5.687,22.859-1.712,7.564-11.417,6.536-11.417,6.536h-10.933s-9.377,1.028-11.089-6.536c-.01-.092-5.687-22.859-5.687-22.859,0,0-3.423-13.969,9.607-13.528l-.851-.01Z"/>
  </g>
  <g id="member40">
    <circle id="Body-40" data-name="Body" class="cls-1" cx="627.351" cy="326.016" r="13.583"/>
    <path id="Head-40" data-name="Head" class="cls-1" d="m613.701,349.979h26.871l-.422.01c13.031-.442,9.607,13.528,9.607,13.528,0,0-5.677,22.767-5.687,22.859-1.712,7.564-11.417,6.536-11.417,6.536h-10.933s-9.377,1.028-11.089-6.536c-.01-.092-5.687-22.859-5.687-22.859,0,0-3.423-13.969,9.607-13.528l-.851-.01Z"/>
  </g>
  <g id="member41">
    <circle id="Body-41" data-name="Body" class="cls-1" cx="26.312" cy="428.66" r="13.583"/>
    <path id="Head-41" data-name="Head" class="cls-1" d="m12.662,452.624h26.871l-.422.01c13.031-.442,9.607,13.528,9.607,13.528,0,0-5.677,22.767-5.687,22.859-1.712,7.564-11.417,6.536-11.417,6.536h-10.933s-9.377,1.028-11.089-6.536c-.01-.092-5.687-22.859-5.687-22.859,0,0-3.423-13.969,9.607-13.528l-.851-.01Z"/>
  </g>
  <g id="member42">
    <circle id="Body-42" data-name="Body" class="cls-1" cx="93.094" cy="428.66" r="13.583"/>
    <path id="Head-42" data-name="Head" class="cls-1" d="m79.444,452.624h26.871l-.422.01c13.031-.442,9.607,13.528,9.607,13.528,0,0-5.677,22.767-5.687,22.859-1.712,7.564-11.417,6.536-11.417,6.536h-10.933s-9.377,1.028-11.089-6.536c-.01-.092-5.687-22.859-5.687-22.859,0,0-3.423-13.969,9.607-13.528l-.851-.01Z"/>
  </g>
  <g id="member43">
    <circle id="Body-43" data-name="Body" class="cls-1" cx="159.876" cy="428.66" r="13.583"/>
    <path id="Head-43" data-name="Head" class="cls-1" d="m146.226,452.624h26.871l-.422.01c13.031-.442,9.607,13.528,9.607,13.528,0,0-5.677,22.767-5.687,22.859-1.712,7.564-11.417,6.536-11.417,6.536h-10.933s-9.377,1.028-11.089-6.536c-.01-.092-5.687-22.859-5.687-22.859,0,0-3.423-13.969,9.607-13.528l-.851-.01Z"/>
  </g>
  <g id="member44">
    <circle id="Body-44" data-name="Body" class="cls-1" cx="226.659" cy="428.66" r="13.583"/>
    <path id="Head-44" data-name="Head" class="cls-1" d="m213.008,452.624h26.871l-.422.01c13.031-.442,9.607,13.528,9.607,13.528,0,0-5.677,22.767-5.687,22.859-1.712,7.564-11.417,6.536-11.417,6.536h-10.933s-9.377,1.028-11.089-6.536c-.01-.092-5.687-22.859-5.687-22.859,0,0-3.423-13.969,9.607-13.528l-.851-.01Z"/>
  </g>
  <g id="member45">
    <circle id="Body-45" data-name="Body" class="cls-1" cx="293.441" cy="428.66" r="13.583"/>
    <path id="Head-45" data-name="Head" class="cls-1" d="m279.79,452.624h26.871l-.422.01c13.031-.442,9.607,13.528,9.607,13.528,0,0-5.677,22.767-5.687,22.859-1.712,7.564-11.417,6.536-11.417,6.536h-10.933s-9.377,1.028-11.089-6.536c-.01-.092-5.687-22.859-5.687-22.859,0,0-3.423-13.969,9.607-13.528l-.851-.01Z"/>
  </g>
  <g id="member46">
    <circle id="Body-46" data-name="Body" class="cls-1" cx="360.223" cy="428.66" r="13.583"/>
    <path id="Head-46" data-name="Head" class="cls-1" d="m346.573,452.624h26.871l-.422.01c13.031-.442,9.607,13.528,9.607,13.528,0,0-5.677,22.767-5.687,22.859-1.712,7.564-11.417,6.536-11.417,6.536h-10.933s-9.377,1.028-11.089-6.536c-.01-.092-5.687-22.859-5.687-22.859,0,0-3.423-13.969,9.607-13.528l-.851-.01Z"/>
  </g>
  <g id="member47">
    <circle id="Body-47" data-name="Body" class="cls-1" cx="427.005" cy="428.66" r="13.583"/>
    <path id="Head-47" data-name="Head" class="cls-1" d="m413.355,452.624h26.871l-.422.01c13.031-.442,9.607,13.528,9.607,13.528,0,0-5.677,22.767-5.687,22.859-1.712,7.564-11.417,6.536-11.417,6.536h-10.933s-9.377,1.028-11.089-6.536c-.01-.092-5.687-22.859-5.687-22.859,0,0-3.423-13.969,9.607-13.528l-.851-.01Z"/>
  </g>
  <g id="member48">
    <circle id="Body-48" data-name="Body" class="cls-1" cx="493.787" cy="428.66" r="13.583"/>
    <path id="Head-48" data-name="Head" class="cls-1" d="m480.137,452.624h26.871l-.422.01c13.031-.442,9.607,13.528,9.607,13.528,0,0-5.677,22.767-5.687,22.859-1.712,7.564-11.417,6.536-11.417,6.536h-10.933s-9.377,1.028-11.089-6.536c-.01-.092-5.687-22.859-5.687-22.859,0,0-3.423-13.969,9.607-13.528l-.851-.01Z"/>
  </g>
  <g id="member49">
    <circle id="Body-49" data-name="Body" class="cls-1" cx="560.569" cy="428.66" r="13.583"/>
    <path id="Head-49" data-name="Head" class="cls-1" d="m546.919,452.624h26.871l-.422.01c13.031-.442,9.607,13.528,9.607,13.528,0,0-5.677,22.767-5.687,22.859-1.712,7.564-11.417,6.536-11.417,6.536h-10.933s-9.377,1.028-11.089-6.536c-.01-.092-5.687-22.859-5.687-22.859,0,0-3.423-13.969,9.607-13.528l-.851-.01Z"/>
  </g>
  <g id="member50">
    <circle id="Body-50" data-name="Body" class="cls-1" cx="627.351" cy="428.66" r="13.583"/>
    <path id="Head-50" data-name="Head" class="cls-1" d="m613.701,452.624h26.871l-.422.01c13.031-.442,9.607,13.528,9.607,13.528,0,0-5.677,22.767-5.687,22.859-1.712,7.564-11.417,6.536-11.417,6.536h-10.933s-9.377,1.028-11.089-6.536c-.01-.092-5.687-22.859-5.687-22.859,0,0-3.423-13.969,9.607-13.528l-.851-.01Z"/>
  </g>
</svg>